PathFileType	4	(X/Y/Z)	statics_05.trc	
DataRate	CameraRate	NumFrames	NumMarkers	Units	OrigDataRate	OrigDataStartFrame	OrigNumFrames	
150.00	150.00	4	26	mm	150.00	361	720	
Frame#	Time	FT1			FT2			FT3			FT4			FT5			DP2			DP3			DP4			DP5			PP2			PP3			PP4			PP5			IP			MP1			MP2			MP3			MP4			MP5			CMC1			CMC2			CMC5			RS			US			EM			EL			
		X1	Y1	Z1	X2	Y2	Z2	X3	Y3	Z3	X4	Y4	Z4	X5	Y5	Z5	X6	Y6	Z6	X7	Y7	Z7	X8	Y8	Z8	X9	Y9	Z9	X10	Y10	Z10	X11	Y11	Z11	X12	Y12	Z12	X13	Y13	Z13	X14	Y14	Z14	X15	Y15	Z15	X16	Y16	Z16	X17	Y17	Z17	X18	Y18	Z18	X19	Y19	Z19	X20	Y20	Z20	X21	Y21	Z21	X22	Y22	Z22	X23	Y23	Z23	X24	Y24	Z24	X25	Y25	Z25	X26	Y26	Z26	

361	2.4	410.4978313959803	135.42620675006592	-176.59057125310065	431.45265970037667	133.8665519697063	-275.0491686369693	468.9313707679754	133.4407414521081	-297.0164246669636	499.24478293390973	128.61876605458534	-296.4006122935072	536.4013282276734	129.63215168602505	-280.54438490412457	438.61765763724134	145.31135317615536	-258.77590930663507	473.221508407398	143.76139488973797	-279.63698438277	506.1705292847728	138.02506378808195	-279.37076710686426	541.7276215902737	134.723146029931	-262.9415837021076	449.69039836262994	159.05494292514865	-235.92873876916667	479.0517468195199	160.3349356773704	-251.92465535123148	510.27313950622323	153.5331626375159	-252.6290798823623	544.1389193467089	140.95112364480462	-243.19904801424383	428.63111159898574	135.7744032926077	-161.82789914633668	450.1094503752406	142.68016903283632	-139.91563887204993	471.7417099751727	168.68466857990765	-194.0344383649886	498.95380312169476	170.30978410949766	-205.03406679897884	519.2362203370674	161.303787302329	-207.39250486332267	541.2119499236885	147.93046489577264	-209.8959979076272	483.4629762132632	145.54168193994596	-119.55450083979528	500.6794065959615	171.14893651194535	-158.69467417556874	537.4922289939607	161.078457885737	-173.25432823380493	523.7723273265728	164.9758784101548	-99.65920549127246	565.4583551143328	164.40328895335514	-128.04756219011574	673.7860837771171	41.59096771363459	104.33480753403269	726.8872786429278	92.16321156093827	78.93758917515518	
362	2.40667	410.45648227245493	135.44408832894686	-176.58185497608946	431.4149879034436	133.87537471853713	-275.0435538548371	468.8888092766724	133.45627171100216	-297.01303735088936	499.2032338325709	128.62509866471976	-296.3963891779258	536.359718238156	129.64212241269422	-280.542926673146	438.5767669108112	145.32050721169793	-258.77012525900705	473.1800335507168	143.7734886217995	-279.63179567414267	506.12658488269136	138.03282596456668	-279.3676796432087	541.6865582132145	134.73145714305863	-262.9407757110832	449.6518127479876	159.0640023712918	-235.92352149987838	479.00763638445346	160.34815951699028	-251.92094209453418	510.2349039587241	153.5407476385772	-252.62787326403773	544.0992577682953	140.9616908759466	-243.20013578686223	428.5970035284914	135.7850800082937	-161.82325973696166	450.07274059310004	142.68989359756822	-139.9114366989448	471.7087723884406	168.694202846364	-194.02905533974698	498.911473281378	170.3198855942032	-205.02689634155055	519.1981573935709	161.31218889006374	-207.39090348158862	541.1730963313184	147.93684811880564	-209.89534021180307	483.42748172237765	145.54666053068254	-119.5510346801163	500.6459265403481	171.15379322044973	-158.6900315802963	537.4476521767563	161.0817751134606	-173.24870203731942	523.7401118731391	164.97980842806666	-99.65746458324197	565.4242973628376	164.40658994533334	-128.0476618685604	673.7659981287784	41.59119739916415	104.32722561585061	726.8659993717287	92.16316004277104	78.9253137190174	
363	2.41333	410.41404899346605	135.45974148739649	-176.57067846575796	431.3754055419034	133.88517101650865	-275.03603692789136	468.84345448843357	133.47195841507784	-297.00763320533173	499.1588491064107	128.63331021678542	-296.39103023600444	536.3156254259541	129.6553278571882	-280.5405638912579	438.5327078746846	145.3308848508346	-258.7626110510755	473.13537917706543	143.7867583269123	-279.6250464953053	506.07781119739127	138.04319930834276	-279.3644722935418	541.6437658445136	134.74333386318332	-262.93923504153753	449.61012682373666	159.07461703276593	-235.9167887479338	478.9600987206128	160.36309679368	-251.9172571780507	510.19379775226867	153.55103725686763	-252.6261696669664	544.0578255434148	140.97482609911768	-243.20017718395482	428.5609479629418	135.79508729923532	-161.81651059424638	450.03480758869483	142.70015439530547	-139.9054793352127	471.67421499618996	168.70552849374877	-194.02239808537047	498.86868817268294	170.33173974521293	-205.0200895851814	519.1584234005115	161.3232797727858	-207.38780616526086	541.1326177129362	147.94662631977607	-209.89412216981694	483.3914997155377	145.55389283912373	-119.54575692972573	500.6105036189418	171.16079147711997	-158.6841121859517	537.4033736134544	161.08975262390356	-173.24402293228985	523.7059154808994	164.98730975998131	-99.65493617748639	565.388460296855	164.414019802185	-128.04714673757329	673.7462560731954	41.59316604428378	104.31858141000448	726.8444355047334	92.16588782584626	78.9126430260189	
364	2.42	410.3705762042035	135.4724684549821	-176.55730122781608	431.33320221642094	133.89586731435807	-275.02643325202285	468.7951760581622	133.4873361259958	-297.00004530872945	499.11140449638333	128.64376414607312	-296.3845526936308	536.268778183306	129.67148513927194	-280.53703841268003	438.48512840397666	145.34228652690547	-258.7530208395011	473.0872131916488	143.80078158745087	-279.61666145919605	506.0240200183546	138.05624298531313	-279.3610542204578	541.5988591648484	134.7587032696341	-262.93685043464694	449.5651158388772	159.0865304910995	-235.90817328483632	478.9089649019917	160.37906663120233	-251.9135118245693	510.149366968902	153.56412374739375	-252.62360209787073	544.0143455448341	140.9903079165344	-243.19899590533285	428.52239581113025	135.80425264131438	-161.80772731648918	449.9956959254495	142.7106635080808	-139.89769896000575	471.63754066131685	168.71829969488633	-194.0144260833239	498.8248602641372	170.34529467399943	-205.01360204750873	519.116610443935	161.33687583122412	-207.383071074102	541.0903225022711	147.95964738958818	-209.89230660046093	483.35481722880496	145.5631135860186	-119.5386248115327	500.5728835821266	171.16982196957673	-158.67689684403086	537.3596159388949	161.10231027071757	-173.24016045346113	523.669582484321	164.99820287226447	-99.65140130958108	565.3506322142908	164.4255140769715	-128.0457456899999	673.7266702525183	41.59709301100382	104.30898716593836	726.8221287939396	92.17151651755198	78.89977084655293	
